<svg xmlns="http://www.w3.org/2000/svg" viewBox="0 0 512 512">
<rect width="512" height="512" rx="104" fill="#171B19"/>
<defs><pattern id="h" width="14" height="14" patternUnits="userSpaceOnUse" patternTransform="rotate(45)"><rect width="4" height="14" fill="rgba(179,58,46,.30)"/></pattern></defs>
<rect x="80" y="80" width="88" height="88" fill="#E7E2D1"/>
<rect x="168" y="80" width="88" height="88" fill="#7D8F72"/>
<rect x="256" y="80" width="88" height="88" fill="#E7E2D1"/>
<rect x="344" y="80" width="88" height="88" fill="#7D8F72"/>
<rect x="80" y="168" width="88" height="88" fill="#7D8F72"/>
<rect x="168" y="168" width="88" height="88" fill="#E7E2D1"/>
<rect x="256" y="168" width="88" height="88" fill="#7D8F72"/>
<rect x="344" y="168" width="88" height="88" fill="#E7E2D1"/>
<rect x="80" y="256" width="88" height="88" fill="#E7E2D1"/>
<rect x="168" y="256" width="88" height="88" fill="#7D8F72"/>
<rect x="256" y="256" width="88" height="88" fill="#E7E2D1"/>
<rect x="344" y="256" width="88" height="88" fill="#7D8F72"/>
<rect x="80" y="344" width="88" height="88" fill="#7D8F72"/>
<rect x="168" y="344" width="88" height="88" fill="#E7E2D1"/>
<rect x="256" y="344" width="88" height="88" fill="#7D8F72"/>
<rect x="344" y="344" width="88" height="88" fill="#E7E2D1"/>
<rect x="168" y="256" width="88" height="88" fill="rgba(179,58,46,0.34)"/>
<rect x="168" y="256" width="88" height="88" fill="url(#h)"/>
<rect x="174.16" y="262.16" width="75.68" height="75.68" fill="none" stroke="#B33A2E" stroke-width="6.16"/>
<rect x="256" y="168" width="88" height="88" fill="rgba(179,58,46,0.55)"/>
<rect x="256" y="168" width="88" height="88" fill="url(#h)"/>
<rect x="262.16" y="174.16" width="75.68" height="75.68" fill="none" stroke="#B33A2E" stroke-width="6.16"/>
<rect x="344" y="80" width="88" height="88" fill="rgba(179,58,46,0.76)"/>
<rect x="344" y="80" width="88" height="88" fill="url(#h)"/>
<rect x="350.16" y="86.16" width="75.68" height="75.68" fill="none" stroke="#B33A2E" stroke-width="6.16"/>
<circle cx="124" cy="388" r="26.4" fill="#171B19" stroke="#FCFBF5" stroke-width="6.16"/>
</svg>
